[Header]
FileType HTR
DataType HTRS
FileVersion 1
NumSegments 36
NumFrames 4
DataFrameRate 120
EulerRotationOrder ZYX
CalibrationUnits mm
RotationUnits Degrees
GlobalAxisofGravity Y
BoneLengthAxis Y
ScaleFactor 1.0
[SegmentNames&Hierarchy]
Hips	GLOBAL
Spine	Hips
Spine1	Spine
Spine2	Spine1
Spine3	Spine2
Neck	Spine3
Head	Neck
HeadEnd	Head
RightShoulder	Spine3
RightArm	RightShoulder
RightForeArm	RightArm
RightForeArmRoll	RightForeArm
RightHand	RightForeArmRoll
RightHandEnd	RightHand
R_FingersEnd	RightHandEnd
RightHandThumb1	RightHand
RightHandThumb2	RightHandThumb1
LeftShoulder	Spine3
LeftArm	LeftShoulder
LeftForeArm	LeftArm
LeftForeArmRoll	LeftForeArm
LeftHand	LeftForeArmRoll
LeftHandEnd	LeftHand
L_FingersEnd	LeftHandEnd
LeftHandThumb1	LeftHand
LeftHandThumb2	LeftHandThumb1
RightUpLeg	Hips
RightLeg	RightUpLeg
RightFoot	RightLeg
RightToeBase	RightFoot
RightToeBaseEnd	RightToeBase
LeftUpLeg	Hips
LeftLeg	LeftUpLeg
LeftFoot	LeftLeg
LeftToeBase	LeftFoot
LeftToeBaseEnd	LeftToeBase
[BasePosition]
Hips	0	0	0	0	0	0	1
Spine	0	0	0	-10	-0	0	1
Spine1	0	0	0	5	0	0	1
Spine2	0	0	0	5	0	0	1
Spine3	0	0	0	0	0	0	1
Neck	0	0	0	10	0	0	1
Head	0	0	0	-10	-0	0	1
HeadEnd	0	0	0	0	0	0	1
RightShoulder	0	0	0	-180	-0	-180	1
RightArm	0	0	0	0	0	0	1
RightForeArm	0	0	0	0	0	0	1
RightForeArmRoll	0	0	0	0	0	0	1
RightHand	0	0	0	0	0	0	1
RightHandEnd	0	0	0	-90	-0	0	1
R_FingersEnd	0	0	0	0	0	0	1
RightHandThumb1	0	0	0	170	-0	-15	1
RightHandThumb2	0	0	0	0	0	0	1
LeftShoulder	0	0	0	0	0	0	1
LeftArm	0	0	0	0	0	0	1
LeftForeArm	0	0	0	0	0	0	1
LeftForeArmRoll	0	0	0	0	0	0	1
LeftHand	0	0	0	0	0	0	1
LeftHandEnd	0	0	0	90	0	0	1
L_FingersEnd	0	0	0	0	0	0	1
LeftHandThumb1	0	0	0	170	-0	-15	1
LeftHandThumb2	0	0	0	0	0	0	1
RightUpLeg	0	0	0	-0	90	0	1
RightLeg	0	0	0	0	0	0	1
RightFoot	0	0	0	0	-0	-70	1
RightToeBase	0	0	0	0	-0	-20	1
RightToeBaseEnd	0	0	0	0	0	0	1
LeftUpLeg	0	0	0	-0	90	0	1
LeftLeg	0	0	0	0	0	0	1
LeftFoot	0	0	0	0	-0	-70	1
LeftToeBase	0	0	0	0	-0	-20	1
LeftToeBaseEnd	0	0	0	0	0	0	1
[Hips]
76	-6.09259367	970.8861084	-20.58882141	-88.85696411	0.1353525072	0.1619945914	1.0
77	-6.120331287	970.8867798	-20.64120293	-88.85965729	0.1376331896	0.1608303636	1.0
78	-6.139147282	970.8841553	-20.71243477	-88.85219574	0.1380671114	0.1644718498	1.0
79	-6.153688908	970.880188	-20.79141617	-88.83818054	0.1373107582	0.1715241373	1.0
[Spine]
76	0	44.87670517	67.31505585	-0.2084703445	0.3498195112	0.0719743818	1.0
77	0	44.87670517	67.31505585	-0.2028356194	0.350602448	0.07269851118	1.0
78	0	44.87670517	67.31505585	-0.1996601522	0.3538040221	0.07352631539	1.0
79	0	44.87670517	67.31505585	-0.1978756785	0.3588228822	0.07449538261	1.0
[Spine1]
76	0	0	89.75341034	-0.5688458085	0.01442341879	0.002311840653	1.0
77	0	0	89.75341034	-0.5591415167	0.01504724007	0.002818861045	1.0
78	0	0	89.75341034	-0.55152601	0.01523881126	0.003209574614	1.0
79	0	0	89.75341034	-0.5447628498	0.01513759419	0.003541830229	1.0
[Spine2]
76	0	0	89.75341034	1.385422349	0.4771941304	0.3840865493	1.0
77	0	0	89.75341034	1.374106288	0.4771749675	0.3889659345	1.0
78	0	0	89.75341034	1.357431412	0.4790947735	0.3977572322	1.0
79	0	0	89.75341034	1.336280346	0.4823161364	0.4095400572	1.0
[Spine3]
76	0	0	89.75341034	0.1076453105	-0.4204126298	-0.05289281905	1.0
77	0	0	89.75341034	0.1044769883	-0.4224677086	-0.05128378794	1.0
78	0	0	89.75341034	0.1014809757	-0.4239955842	-0.05079722777	1.0
79	0	0	89.75341034	0.09839724004	-0.4252422154	-0.0510154441	1.0
[Neck]
76	0	-33.65752792	235.6027069	-1.135908723	-0.1140343994	-0.1670541763	1.0
77	0	-33.65752792	235.6027069	-1.128472686	-0.1256189495	-0.1688752025	1.0
78	0	-33.65752792	235.6027069	-1.124063134	-0.135941118	-0.1642279923	1.0
79	0	-33.65752792	235.6027069	-1.121599078	-0.1458627284	-0.155127883	1.0
[Head]
76	0	0	123.4109421	-0.9169668555	-0.1903082132	-1.011390805	1.0
77	0	0	123.4109421	-0.9006191492	-0.1822353005	-1.020725012	1.0
78	0	0	123.4109421	-0.8802183867	-0.1771505624	-1.034863472	1.0
79	0	0	123.4109421	-0.8565590978	-0.1736209393	-1.052861094	1.0
[HeadEnd]
76	0	0	145.2883301	0	0	0	1.0
77	0	0	145.2883301	0	0	0	1.0
78	0	0	145.2883301	0	0	0	1.0
79	0	0	145.2883301	0	0	0	1.0
[RightShoulder]
76	-30.74827576	-51.24713135	166.0407104	-4.422070026	-6.078626156	0.9819954634	1.0
77	-30.74827576	-51.24713135	166.0407104	-4.436632156	-6.083543301	1.005144477	1.0
78	-30.74827576	-51.24713135	166.0407104	-4.463861942	-6.088923931	1.033767819	1.0
79	-30.74827576	-51.24713135	166.0407104	-4.50048399	-6.094521523	1.067089319	1.0
[RightArm]
76	152.7164459	0	0	-24.80560303	-69.4512558	4.269620895	1.0
77	152.7164459	0	0	-24.78498077	-69.45204926	4.245126247	1.0
78	152.7164459	0	0	-24.72104263	-69.44946289	4.171947479	1.0
79	152.7164459	0	0	-24.62623596	-69.44433594	4.064286232	1.0
[RightForeArm]
76	297.8946228	0	0	0	0	-31.28720093	1.0
77	297.8946228	0	0	0	0	-31.28561783	1.0
78	297.8946228	0	0	0	0	-31.27985764	1.0
79	297.8946228	0	0	0	0	-31.27108002	1.0
[RightForeArmRoll]
76	122.9768982	0	0	4.543311119	0	0	1.0
77	122.9768982	0	0	4.485753536	0	0	1.0
78	122.9768982	0	0	4.445563793	0	0	1.0
79	122.9768982	0	0	4.412149429	0	0	1.0
[RightHand]
76	127.1009369	0	0	1.807366857e-006	8.072674751	-3.072090626	1.0
77	127.1009369	0	0	5.32987724e-006	8.058560371	-3.050295591	1.0
78	127.1009369	0	0	5.264568244e-006	8.037632942	-3.034786701	1.0
79	127.1009369	0	0	3.52376037e-006	8.010995865	-3.021511078	1.0
[RightHandEnd]
76	72.05677795	0	0	0	0	0	1.0
77	72.05677795	0	0	0	0	0	1.0
78	72.05677795	0	0	0	0	0	1.0
79	72.05677795	0	0	0	0	0	1.0
[R_FingersEnd]
76	72.05677795	0	0	0	0	0	1.0
77	72.05677795	0	0	0	0	0	1.0
78	72.05677795	0	0	0	0	0	1.0
79	72.05677795	0	0	0	0	0	1.0
[RightHandThumb1]
76	28.82271004	-48.03784943	19.2151413	0	0	0	1.0
77	28.82271004	-48.03784943	19.2151413	0	0	0	1.0
78	28.82271004	-48.03784943	19.2151413	0	0	0	1.0
79	28.82271004	-48.03784943	19.2151413	0	0	0	1.0
[RightHandThumb2]
76	72.05677795	0	0	0	0	0	1.0
77	72.05677795	0	0	0	0	0	1.0
78	72.05677795	0	0	0	0	0	1.0
79	72.05677795	0	0	0	0	0	1.0
[LeftShoulder]
76	30.74827576	-51.24713135	166.0407104	5.3776474	6.052328587	2.934787512	1.0
77	30.74827576	-51.24713135	166.0407104	5.375473022	6.041583538	2.916941643	1.0
78	30.74827576	-51.24713135	166.0407104	5.378030777	6.024707794	2.900069714	1.0
79	30.74827576	-51.24713135	166.0407104	5.38329649	6.002684593	2.882901669	1.0
[LeftArm]
76	152.7164459	0	0	4.005259514	68.72008514	-34.38756561	1.0
77	152.7164459	0	0	3.964775562	68.74000549	-34.34814835	1.0
78	152.7164459	0	0	3.875769138	68.76123047	-34.33490372	1.0
79	152.7164459	0	0	3.747955322	68.78500366	-34.3385849	1.0
[LeftForeArm]
76	297.8946228	0	0	0	0	-19.21148109	1.0
77	297.8946228	0	0	0	0	-19.21314812	1.0
78	297.8946228	0	0	0	0	-19.21558762	1.0
79	297.8946228	0	0	0	0	-19.2192421	1.0
[LeftForeArmRoll]
76	122.9768982	0	0	-4.587967396	0	0	1.0
77	122.9768982	0	0	-4.597389221	0	0	1.0
78	122.9768982	0	0	-4.559131622	0	0	1.0
79	122.9768982	0	0	-4.487491608	0	0	1.0
[LeftHand]
76	127.1009369	0	0	-0.0002450030006	-21.24186897	1.028473616	1.0
77	127.1009369	0	0	-0.0003140173503	-21.13908958	1.05109632	1.0
78	127.1009369	0	0	-0.0002979390847	-20.98379135	1.104537129	1.0
79	127.1009369	0	0	-0.0002278154134	-20.7827034	1.181514025	1.0
[LeftHandEnd]
76	72.05677795	0	0	0	0	0	1.0
77	72.05677795	0	0	0	0	0	1.0
78	72.05677795	0	0	0	0	0	1.0
79	72.05677795	0	0	0	0	0	1.0
[L_FingersEnd]
76	72.05677795	0	0	0	0	0	1.0
77	72.05677795	0	0	0	0	0	1.0
78	72.05677795	0	0	0	0	0	1.0
79	72.05677795	0	0	0	0	0	1.0
[LeftHandThumb1]
76	28.82271004	-48.03784943	-19.2151413	0	0	0	1.0
77	28.82271004	-48.03784943	-19.2151413	0	0	0	1.0
78	28.82271004	-48.03784943	-19.2151413	0	0	0	1.0
79	28.82271004	-48.03784943	-19.2151413	0	0	0	1.0
[LeftHandThumb2]
76	72.05677795	0	0	0	0	0	1.0
77	72.05677795	0	0	0	0	0	1.0
78	72.05677795	0	0	0	0	0	1.0
79	72.05677795	0	0	0	0	0	1.0
[RightUpLeg]
76	-91.21989441	0	-26.64850616	9.410820961	4.221950531	-0.8727452755	1.0
77	-91.21989441	0	-26.64850616	9.401173592	4.217634678	-0.8650184274	1.0
78	-91.21989441	0	-26.64850616	9.39654541	4.222743034	-0.873357892	1.0
79	-91.21989441	0	-26.64850616	9.394046783	4.234452248	-0.8917800188	1.0
[RightLeg]
76	402.8824463	0	0	0	0	14.61911392	1.0
77	402.8824463	0	0	0	0	14.60477352	1.0
78	402.8824463	0	0	0	0	14.5950613	1.0
79	402.8824463	0	0	0	0	14.58746719	1.0
[RightFoot]
76	435.9781189	0	0	4.488279343	-1.668676972	-14.89335918	1.0
77	435.9781189	0	0	4.478751659	-1.666836858	-14.89013195	1.0
78	435.9781189	0	0	4.466828823	-1.67749238	-14.88646793	1.0
79	435.9781189	0	0	4.452577114	-1.696527004	-14.88240147	1.0
[RightToeBase]
76	183.1846619	0	0	0	0	0.6724382639	1.0
77	183.1846619	0	0	0	0	0.6689043641	1.0
78	183.1846619	0	0	0	0	0.6596668363	1.0
79	183.1846619	0	0	0	0	0.6461840272	1.0
[RightToeBaseEnd]
76	73.79586792	0	0	0	0	0	1.0
77	73.79586792	0	0	0	0	0	1.0
78	73.79586792	0	0	0	0	0	1.0
79	73.79586792	0	0	0	0	0	1.0
[LeftUpLeg]
76	91.21989441	0	-26.64850616	0.6943666935	-5.153718472	0.1071896479	1.0
77	91.21989441	0	-26.64850616	0.705953002	-5.156532764	0.1146358252	1.0
78	91.21989441	0	-26.64850616	0.7163632512	-5.152491093	0.1056726649	1.0
79	91.21989441	0	-26.64850616	0.7257923484	-5.143630981	0.08584985882	1.0
[LeftLeg]
76	402.8824463	0	0	0	0	11.3379631	1.0
77	402.8824463	0	0	0	0	11.32585526	1.0
78	402.8824463	0	0	0	0	11.32043076	1.0
79	402.8824463	0	0	0	0	11.31979752	1.0
[LeftFoot]
76	435.9781189	0	0	-7.939610004	-0.1840214729	-12.67748737	1.0
77	435.9781189	0	0	-7.944112778	-0.1936779171	-12.67354965	1.0
78	435.9781189	0	0	-7.946444035	-0.2021145821	-12.66651917	1.0
79	435.9781189	0	0	-7.94690609	-0.2095201313	-12.65746689	1.0
[LeftToeBase]
76	183.1846619	0	0	0	0	0.9301674366	1.0
77	183.1846619	0	0	0	0	0.9297168851	1.0
78	183.1846619	0	0	0	0	0.9158062935	1.0
79	183.1846619	0	0	0	0	0.8925698996	1.0
[LeftToeBaseEnd]
76	73.79586792	0	0	0	0	0	1.0
77	73.79586792	0	0	0	0	0	1.0
78	73.79586792	0	0	0	0	0	1.0
79	73.79586792	0	0	0	0	0	1.0
[EndOfFile]
